<?xml version="1.0" encoding="utf-8"?>
<!-- Generator: Adobe Illustrator 26.5.0, SVG Export Plug-In . SVG Version: 6.00 Build 0)  -->
<svg version="1.1" id="Layer_1" xmlns="http://www.w3.org/2000/svg" xmlns:xlink="http://www.w3.org/1999/xlink" x="0px" y="0px"
	 viewBox="0 0 558 82" style="enable-background:new 0 0 558 82;" xml:space="preserve">
<path d="M179.3,48.5l21.9,31h-17.9l-19.9-30.2l18.8-23.7h16.9L179.3,48.5z M149.4,2.3v77.3h14V49.3v-47H149.4z M259.8,9.3
	c5,4.6,7.5,10.9,7.5,18.8c0,7.9-2.5,14.1-7.5,18.7s-11.5,6.8-19.7,6.8h-17.9v26h-14.8V2.4h32.7C248.3,2.4,254.8,4.7,259.8,9.3z
	 M252.5,28.1c0-4.4-1.1-7.8-3.2-10.1c-2.2-2.3-5.3-3.5-9.5-3.5h-17.5v26.9h17.4c4.2,0,7.3-1.1,9.5-3.4
	C251.4,35.7,252.5,32.4,252.5,28.1z M72.6,17.5H87V2.5H72.6V17.5z M137.7,51.7c-1.9-1.2-4.1-2.1-6.4-2.8s-4.7-1.1-7.1-1.5
	c-1.9-0.3-3.7-0.6-5.4-0.9c-1.8-0.3-3.3-0.6-4.7-1c-1.3-0.4-2.3-1-3.1-1.7c-0.8-0.7-1.2-1.6-1.2-2.8c0-1.2,0.3-2.2,1-3
	s1.6-1.4,2.6-1.9s2.1-0.8,3.2-1s2.2-0.3,3.2-0.3c2.6,0,5.1,0.5,7.5,1.6s3.9,3.2,4.7,6.5l11.8-3.4c-0.8-2.9-2-5.4-3.6-7.3
	s-3.5-3.4-5.6-4.5s-4.6-1.9-7.2-2.3c-2.7-0.4-5.4-0.6-8.3-0.6c-2.5,0-5.1,0.3-7.8,0.9c-2.7,0.6-5.1,1.6-7.2,2.9s-3.9,3-5.3,5.1
	c-1.3,2.1-2,4.7-2,7.7c0,4.9,1.4,8.5,4.2,10.7c2.8,2.2,6,3.8,9.8,4.7c2,0.5,4,0.9,6.1,1.2c2.1,0.3,4.1,0.6,5.9,0.9
	c0.7,0.1,1.6,0.2,2.6,0.4s1.9,0.4,2.7,0.8c0.8,0.4,1.5,0.9,2.1,1.5c0.6,0.6,0.9,1.4,0.9,2.4c0,1.1-0.4,1.9-1.1,2.6
	c-0.7,0.7-1.7,1.2-2.8,1.7c-1.1,0.4-2.2,0.7-3.4,0.9c-1.2,0.2-2.2,0.3-3.1,0.3c-1.2,0-2.6-0.2-4.2-0.5c-1.6-0.3-3-0.8-4.5-1.5
	c-1.4-0.7-2.7-1.6-3.7-2.7c-1.1-1.1-1.7-2.4-2-3.9l-11.8,3.4c0.7,2.9,1.9,5.5,3.7,7.6c1.8,2.1,3.9,3.9,6.4,5.2
	c2.4,1.3,5.1,2.3,8,2.9s5.7,0.9,8.4,0.9c2.6,0,5.3-0.3,8-0.9c2.7-0.6,5.2-1.5,7.5-2.8c2.2-1.3,4.1-3,5.5-5.1s2.1-4.7,2.1-7.8
	c0-3.2-0.6-5.8-1.7-7.8C141.1,54.6,139.6,53,137.7,51.7z M55.1,42c-1.6,0.8-3,1.3-4.1,1.5c4.2,1.1,7.3,3.2,9.2,6.1
	c1.9,2.9,2.9,7.3,2.9,13.1v13c0,1.6,0.5,2.9,1.6,3.8H49.6c-0.8-1-1.2-2.3-1.2-3.9V63.1c0-4.7-1.3-8-3.9-10.1s-6.7-3.1-12.2-3.1H16.7
	v29.6H1.9V2.4h35.8c3.3,0,6.5,0.4,9.8,1.2c3.3,0.8,6.2,2.1,8.8,3.9s4.7,4.2,6.3,7.2c1.6,3,2.4,6.8,2.4,11.3c0,2.9-0.5,5.5-1.5,7.6
	c-1,2.1-2.3,3.9-3.7,5.3C58.2,40.1,56.7,41.2,55.1,42z M50.1,25.9c0-3.8-1.3-6.6-3.8-8.5s-6.2-2.9-11.1-2.9H16.7v23.4H35
	c4.9,0,8.6-1,11.2-3.1C48.8,32.7,50.1,29.7,50.1,25.9z M72.7,79.5h14.2V26.1H72.7V79.5z M306.1,25.9c-1.1-0.2-2.2-0.4-3.3-0.4
	c-7,0-12.3,2.9-15.9,8.8h-0.2l-1.7-8.2h-12.1v53.4H287V55.9c-0.2-6,1.2-10.6,4.2-13.7s6.8-4.6,11.6-4.6h1.5c0.5,0,1.1,0.1,1.8,0.2
	L306.1,25.9L306.1,25.9z M508.7,40.3c1.3,3.2,2,6.7,2,10.4v7.3L470.7,58c1.6,7.4,6.2,11,13.8,11c2.9,0,5.5-0.4,7.8-1.3
	c2.3-0.9,4.1-2.3,5.4-4.5l12.7,4c-2.3,4.5-5.7,7.9-10.3,10.2c-4.6,2.3-9.6,3.5-14.9,3.5c-4.2,0-8.1-0.7-11.6-2.1
	c-3.5-1.4-6.5-3.4-8.9-6s-4.3-5.7-5.6-9.2c-1.3-3.6-1.9-7.6-1.8-12c0.1-3.9,0.8-7.5,2.2-10.8c1.4-3.3,3.3-6.2,5.6-8.6
	s5.2-4.3,8.5-5.6c3.3-1.3,7-2,11-2c3.8,0,7.2,0.6,10.3,2c3.1,1.3,5.9,3.1,8.2,5.5C505.6,34.4,507.4,37.2,508.7,40.3z M496.9,48.1
	c-0.5-3.3-1.8-6.1-3.9-8.3c-2.1-2.2-5.1-3.3-9-3.3c-4.2,0-7.2,1.1-9.2,3.2c-2,2.2-3.2,5-3.7,8.4H496.9z M407,17.3h14.5V2.4H407V17.3
	z M433.7,79.5h14.2V2.3h-14.2V79.5z M535.1,34.3h-0.2l-1.7-8.2H521v53.4h14.2V55.9c-0.2-6,1.2-10.6,4.2-13.7s6.8-4.6,11.6-4.6h1.5
	c0.5,0,1.1,0.1,3.4,0.2v-12c-2.7-0.2-3.8-0.4-5-0.4C544,25.5,538.6,28.5,535.1,34.3z M362.2,53c0,15.5-12.5,28-28,28
	c-15.5,0-28-12.6-28-28s12.5-28,28-28C349.7,25,362.2,37.5,362.2,53z M349.7,53c0-8.6-6.9-15.5-15.5-15.5s-15.5,6.9-15.5,15.5
	s6.9,15.5,15.5,15.5S349.7,61.6,349.7,53z M386.9,16.9c0.5-1,1.1-1.8,1.8-2.2
	c0.7-0.4,1.4-0.7,2.1-0.8c0.7-0.1,1.2-0.1,1.5-0.1c0.6,0,1.3,0.1,2,0.2c0.7,0.2,1.4,0.3,2,0.5c0.7,0.2,1.4,0.5,2.1,0.7l3.1-11.4
	c-3.3-2-7.1-2.9-11.4-2.9c-5.7,0-10.2,1.7-13.4,5.1c-3.2,3.4-4.8,7.9-4.9,13.6v6.5h-9.7v11h9.7v42.4h14.2V37.2h15.4v-11h-15.4v-4.9
	C386.1,19.4,386.4,17.9,386.9,16.9z M407.1,79.5h14.2V26.1h-14.2V79.5z"/>
</svg>
