<?xml version="1.0" encoding="utf-8"?>
<!-- Generator: Adobe Illustrator 25.2.3, SVG Export Plug-In . SVG Version: 6.00 Build 0)  -->
<svg version="1.1" id="Layer_1" xmlns="http://www.w3.org/2000/svg" xmlns:xlink="http://www.w3.org/1999/xlink" x="0px" y="0px"
	 viewBox="0 0 600 82" style="enable-background:new 0 0 600 82;" xml:space="preserve">
<path d="M177.46,48.53l21.92,30.99H181.5l-19.91-30.24l18.75-23.72h16.93L177.46,48.53z M147.56,2.26v77.26h14.04V49.28V2.26H147.56
	z M286.68,9.31c4.98,4.61,7.47,10.88,7.47,18.79c0,7.92-2.49,14.14-7.47,18.67c-4.98,4.53-11.55,6.8-19.71,6.8H249.1v25.96h-14.81
	V2.39h32.69C275.13,2.39,281.7,4.7,286.68,9.31z M279.34,28.1c0-4.41-1.08-7.78-3.25-10.1c-2.16-2.33-5.33-3.49-9.49-3.49H249.1
	v26.93h17.39c4.16,0,7.34-1.14,9.55-3.43C278.23,35.73,279.34,32.43,279.34,28.1z M70.68,17.46h14.45V2.52H70.68V17.46z
	 M135.83,51.73c-1.92-1.22-4.06-2.14-6.43-2.75c-2.37-0.61-4.73-1.12-7.1-1.53c-1.88-0.32-3.69-0.63-5.45-0.92
	c-1.76-0.28-3.33-0.63-4.71-1.04c-1.31-0.41-2.35-0.96-3.12-1.65c-0.78-0.69-1.16-1.61-1.16-2.75c0-1.23,0.35-2.22,1.04-3
	c0.69-0.78,1.55-1.41,2.57-1.9c1.02-0.49,2.1-0.84,3.24-1.04c1.14-0.2,2.2-0.31,3.18-0.31c2.61,0,5.1,0.53,7.47,1.59
	c2.37,1.06,3.92,3.23,4.65,6.49l11.76-3.43c-0.82-2.94-2.02-5.37-3.61-7.28c-1.59-1.91-3.47-3.43-5.63-4.53
	c-2.16-1.1-4.57-1.85-7.23-2.26c-2.65-0.41-5.41-0.61-8.26-0.61c-2.53,0-5.12,0.31-7.78,0.92c-2.65,0.61-5.06,1.57-7.22,2.88
	c-2.16,1.31-3.92,3.02-5.26,5.14c-1.35,2.12-2.02,4.7-2.02,7.71c0,4.9,1.39,8.47,4.16,10.71c2.77,2.25,6.04,3.82,9.79,4.72
	c1.96,0.49,3.98,0.88,6.06,1.16c2.08,0.29,4.06,0.59,5.94,0.92c0.73,0.08,1.59,0.2,2.57,0.37c0.98,0.17,1.88,0.43,2.69,0.8
	c0.82,0.37,1.51,0.86,2.08,1.47c0.57,0.61,0.86,1.41,0.86,2.39c0,1.06-0.37,1.94-1.1,2.63c-0.73,0.7-1.65,1.25-2.75,1.65
	c-1.1,0.41-2.23,0.72-3.37,0.92c-1.15,0.2-2.16,0.31-3.06,0.31c-1.22,0-2.61-0.16-4.16-0.49c-1.55-0.32-3.04-0.83-4.47-1.53
	c-1.43-0.69-2.67-1.59-3.73-2.69c-1.06-1.1-1.71-2.39-1.96-3.86l-11.75,3.43c0.65,2.94,1.88,5.47,3.67,7.59
	c1.8,2.12,3.92,3.86,6.37,5.2c2.45,1.35,5.1,2.33,7.96,2.94c2.86,0.61,5.67,0.92,8.45,0.92c2.61,0,5.28-0.29,8.02-0.86
	c2.73-0.57,5.22-1.51,7.47-2.82c2.24-1.3,4.08-3.02,5.51-5.14c1.43-2.12,2.14-4.73,2.14-7.84c0-3.18-0.57-5.77-1.71-7.77
	C139.27,54.57,137.74,52.95,135.83,51.73z M53.2,42c-1.59,0.78-2.96,1.28-4.1,1.53c4.24,1.14,7.32,3.18,9.24,6.12
	c1.92,2.94,2.88,7.31,2.88,13.1v12.98c0,1.63,0.53,2.9,1.59,3.8H47.75c-0.82-0.98-1.23-2.28-1.23-3.92V63.12
	c0-4.65-1.31-8.02-3.92-10.1c-2.61-2.08-6.7-3.12-12.24-3.12H14.81v29.63H0V2.39h35.75c3.26,0,6.53,0.39,9.8,1.16
	c3.26,0.78,6.2,2.06,8.81,3.86s4.72,4.2,6.31,7.22c1.59,3.02,2.39,6.78,2.39,11.26c0,2.94-0.51,5.47-1.53,7.59
	c-1.02,2.12-2.26,3.88-3.73,5.26C56.32,40.14,54.79,41.22,53.2,42z M48.24,25.9c0-3.75-1.27-6.59-3.8-8.51
	c-2.53-1.92-6.24-2.88-11.14-2.88H14.81v23.38h18.36c4.9,0,8.63-1.04,11.2-3.12C46.95,32.69,48.24,29.73,48.24,25.9z M70.8,79.52H85
	V26.14H70.8V79.52z M333.02,25.9c-1.06-0.25-2.16-0.37-3.31-0.37c-7.02,0-12.33,2.94-15.91,8.81h-0.25l-1.71-8.2h-12.12v53.38h14.2
	V55.89c-0.16-6.04,1.24-10.59,4.22-13.65c2.98-3.06,6.83-4.59,11.57-4.59h1.53c0.53,0,1.12,0.08,1.78,0.24V25.9z M535.57,40.34
	c1.31,3.18,1.96,6.65,1.96,10.41v7.35l-39.91-0.12c1.63,7.35,6.24,11.02,13.83,11.02c2.94,0,5.55-0.43,7.83-1.28
	c2.28-0.86,4.08-2.35,5.39-4.47l12.73,4.04c-2.29,4.49-5.71,7.9-10.29,10.22c-4.57,2.33-9.55,3.49-14.93,3.49
	c-4.25,0-8.12-0.72-11.63-2.14c-3.51-1.43-6.49-3.43-8.94-6c-2.45-2.57-4.31-5.65-5.57-9.25c-1.27-3.59-1.86-7.59-1.78-12
	c0.08-3.92,0.82-7.53,2.2-10.83c1.39-3.31,3.26-6.16,5.63-8.57c2.37-2.41,5.2-4.26,8.51-5.57c3.3-1.3,6.96-1.96,10.96-1.96
	c3.75,0,7.2,0.65,10.34,1.96c3.14,1.31,5.88,3.12,8.2,5.45C532.45,34.41,534.26,37.16,535.57,40.34z M523.82,48.06
	c-0.49-3.35-1.77-6.12-3.86-8.33c-2.08-2.2-5.08-3.31-9-3.31c-4.16,0-7.24,1.08-9.24,3.25c-2,2.16-3.24,4.96-3.73,8.39H523.82z
	 M433.89,17.33h14.45V2.39h-14.45V17.33z M460.55,79.52h14.2V2.31h-14.2V79.52z M561.93,34.34h-0.25l-1.71-8.2h-12.12v53.38h14.2
	V55.89c-0.16-6.04,1.24-10.59,4.22-13.65c2.98-3.06,6.83-4.59,11.57-4.59h1.53c0.53,0,1.12,0.08,3.42,0.24v-12
	c-2.71-0.25-3.81-0.37-4.95-0.37C570.83,25.53,565.52,28.47,561.93,34.34z M389.1,53.04c0,15.49-12.55,28.04-28.04,28.04
	c-15.49,0-28.04-12.55-28.04-28.04s12.55-28.04,28.04-28.04C376.55,24.99,389.1,37.55,389.1,53.04z M376.56,53.04
	c0-8.56-6.94-15.5-15.5-15.5s-15.5,6.94-15.5,15.5s6.94,15.5,15.5,15.5S376.56,61.6,376.56,53.04z M585.55,64.24v14.94H600V64.24
	H585.55z M413.77,16.9c0.53-1.02,1.14-1.75,1.83-2.2c0.69-0.45,1.39-0.72,2.08-0.8c0.69-0.08,1.2-0.12,1.53-0.12
	c0.65,0,1.33,0.08,2.02,0.25c0.69,0.16,1.37,0.33,2.02,0.49c0.73,0.25,1.43,0.49,2.08,0.73l3.06-11.39
	c-3.27-1.96-7.06-2.94-11.39-2.94c-5.71,0-10.16,1.69-13.35,5.08c-3.18,3.39-4.82,7.94-4.9,13.65v6.49h-9.67v11.02h9.67v42.36h14.2
	V37.16h15.43V26.14h-15.43v-4.9C412.97,19.37,413.24,17.92,413.77,16.9z M434.01,79.52h14.2V26.14h-14.2V79.52z"/>
</svg>
