<?xml version="1.0" encoding="UTF-8"?><svg id="Layer_1" xmlns="http://www.w3.org/2000/svg" viewBox="0 0 1920 770"><polygon points="720.16 338.93 669.66 338.93 613.72 409.71 673.11 499.93 726.47 499.93 661.06 407.48 720.16 338.93"/><rect x="571.83" y="269.43" width="41.88" height="230.5"/><path d="m846.12,269.8h-97.53v230.13h44.19v-77.44h53.33c24.35,0,43.95-6.76,58.81-20.27,14.85-13.51,22.29-32.08,22.29-55.7s-7.43-42.31-22.29-56.08c-14.85-13.75-34.46-20.64-58.81-20.64Zm27.03,106.3c-6.58,6.82-16.07,10.22-28.49,10.22h-51.87v-80.36h52.24c12.41,0,21.86,3.47,28.3,10.41,6.45,6.94,9.68,16.99,9.68,30.14s-3.29,22.77-9.87,29.59Z"/><rect x="342.47" y="270.19" width="43.1" height="44.57"/><path d="m536.84,417.01c-5.72-3.65-12.12-6.39-19.18-8.22-7.06-1.82-14.13-3.35-21.19-4.57-5.6-.97-11.01-1.88-16.25-2.74-5.24-.85-9.92-1.89-14.06-3.11-3.9-1.21-7.01-2.86-9.31-4.93-2.32-2.07-3.47-4.81-3.47-8.22,0-3.66,1.03-6.63,3.11-8.95,2.06-2.32,4.62-4.2,7.67-5.66,3.05-1.47,6.26-2.5,9.68-3.11,3.41-.6,6.58-.91,9.5-.91,7.79,0,15.22,1.59,22.28,4.75,7.06,3.17,11.69,9.62,13.88,19.36l35.07-10.23c-2.44-8.76-6.03-16.01-10.78-21.73-4.75-5.71-10.35-10.23-16.8-13.52-6.46-3.28-13.65-5.53-21.56-6.75-7.91-1.22-16.14-1.83-24.65-1.83-7.56,0-15.29.91-23.2,2.74-7.91,1.83-15.1,4.7-21.55,8.59-6.46,3.9-11.69,9.01-15.71,15.34-4.02,6.34-6.03,14.01-6.03,23.01,0,14.61,4.14,25.27,12.43,31.96,8.28,6.71,18.02,11.39,29.22,14.07,5.84,1.46,11.87,2.62,18.08,3.47,6.21.86,12.11,1.77,17.71,2.74,2.19.25,4.75.61,7.67,1.1,2.93.49,5.6,1.28,8.04,2.37,2.43,1.1,4.5,2.56,6.21,4.38,1.7,1.83,2.56,4.2,2.56,7.12,0,3.17-1.1,5.79-3.29,7.85-2.19,2.08-4.94,3.72-8.22,4.94-3.29,1.22-6.64,2.13-10.05,2.74-3.42.61-6.45.91-9.13.91-3.65,0-7.8-.49-12.42-1.47-4.63-.97-9.07-2.49-13.33-4.57-4.26-2.06-7.98-4.75-11.14-8.04-3.16-3.28-5.11-7.12-5.84-11.51l-35.07,10.23c1.95,8.77,5.6,16.32,10.95,22.65,5.36,6.34,11.69,11.51,19,15.53,7.31,4.01,15.22,6.94,23.74,8.76,8.52,1.83,16.92,2.74,25.2,2.74,7.79,0,15.76-.86,23.93-2.55,8.15-1.71,15.58-4.51,22.28-8.41,6.69-3.89,12.18-9,16.44-15.34,4.26-6.33,6.39-14.12,6.39-23.38s-1.7-17.23-5.11-23.19c-3.41-5.97-7.98-10.77-13.7-14.43Z"/><path d="m304,378.29c4.38-4.14,8.09-9.37,11.14-15.7,3.04-6.33,4.57-13.88,4.57-22.65,0-13.39-2.38-24.59-7.13-33.61-4.75-9-11.02-16.19-18.82-21.55-7.8-5.36-16.56-9.19-26.29-11.51-9.74-2.31-19.49-3.47-29.22-3.47h-106.66v230.13h44.2v-88.39h46.39c16.55,0,28.73,3.1,36.53,9.31,7.79,6.21,11.69,16.25,11.69,30.13v37.26c0,4.87,1.22,8.76,3.66,11.69h44.92c-3.16-2.68-4.75-6.45-4.75-11.32v-38.72c0-17.29-2.87-30.31-8.58-39.08-5.73-8.77-14.92-14.85-27.58-18.26,3.4-.73,7.49-2.25,12.24-4.57,4.75-2.31,9.31-5.54,13.7-9.68Zm-40-11.87c-7.67,6.21-18.81,9.31-33.42,9.31h-54.79v-69.77h55.16c14.61,0,25.68,2.87,33.23,8.59,7.55,5.72,11.32,14.18,11.32,25.38s-3.83,20.27-11.51,26.48Z"/><rect x="342.83" y="340.67" width="42.37" height="159.26"/><path d="m985.83,365.14h-.73l-5.11-24.48h-36.16v159.26h42.37v-70.5c-.49-18.02,3.71-31.59,12.6-40.72,8.89-9.13,20.39-13.7,34.52-13.7h4.57c1.58,0,3.35.24,5.3.73v-35.8c-3.17-.73-6.45-1.1-9.86-1.1-20.94,0-36.77,8.77-47.48,26.3Z"/><path d="m1631.24,358.39c-6.94-6.94-15.1-12.36-24.47-16.25-9.38-3.89-19.67-5.84-30.86-5.84-11.93,0-22.83,1.95-32.69,5.84-9.87,3.9-18.33,9.44-25.39,16.62-7.06,7.19-12.67,15.71-16.8,25.57-4.14,9.86-6.33,20.64-6.58,32.33-.25,13.15,1.52,25.09,5.3,35.79,3.77,10.72,9.32,19.91,16.62,27.58,7.3,7.67,16.19,13.64,26.66,17.89,10.47,4.26,22.04,6.39,34.71,6.39,16.07,0,30.92-3.47,44.56-10.41,13.64-6.94,23.87-17.11,30.69-30.5l-37.99-12.06c-3.9,6.34-9.26,10.78-16.07,13.33-6.82,2.56-14.61,3.83-23.37,3.83-22.65,0-36.41-10.95-41.27-32.87l119.08.36v-21.92c0-11.2-1.95-21.55-5.85-31.05-3.89-9.5-9.31-17.72-16.25-24.66Zm-95.88,47.67c1.47-10.23,5.18-18.57,11.14-25.02,5.97-6.45,15.16-9.68,27.58-9.68,11.69,0,20.64,3.29,26.85,9.87,6.21,6.58,10.04,14.86,11.51,24.84h-77.08Z"/><rect x="1344.13" y="269.8" width="43.1" height="44.57"/><rect x="1423.69" y="269.56" width="42.37" height="230.37"/><path d="m1726.15,365.14h-.73l-5.11-24.48h-36.16v159.26h42.37v-70.5c-.49-18.02,3.71-31.59,12.6-40.72,8.88-9.13,20.39-13.7,34.52-13.7h4.57c1.58,0,3.35.24,10.21.73v-35.8c-8.08-.73-11.36-1.1-14.77-1.1-20.94,0-36.77,8.77-47.48,26.3Z"/><path d="m1126.84,337.25c-46.21,0-83.66,37.46-83.66,83.66s37.46,83.66,83.66,83.66,83.66-37.46,83.66-83.66-37.46-83.66-83.66-83.66Zm0,129.91c-25.54,0-46.25-20.7-46.25-46.24s20.71-46.24,46.25-46.24,46.25,20.7,46.25,46.24-20.71,46.24-46.25,46.24Z"/><path d="m1284.11,313.09c1.58-3.04,3.4-5.23,5.47-6.57s4.14-2.13,6.21-2.38c2.06-.23,3.59-.36,4.57-.36,1.95,0,3.96.25,6.03.73,2.07.49,4.08.97,6.02,1.46,2.19.73,4.26,1.46,6.21,2.19l9.13-33.97c-9.74-5.84-21.07-8.76-33.97-8.76-17.04,0-30.31,5.05-39.82,15.16-9.49,10.1-14.37,23.69-14.61,40.73v19.35h-28.86v32.88h28.86v126.39h42.38v-126.39h46.02v-32.88h-46.02v-14.61c0-5.6.79-9.92,2.37-12.97Z"/><rect x="1344.49" y="340.67" width="42.38" height="159.26"/></svg>